<mxfile host="app.diagrams.net" modified="2023-07-26T07:45:13.354Z" agent="Mozilla/5.0 (Windows NT 10.0; Win64; x64) AppleWebKit/537.36 (KHTML, like Gecko) Chrome/110.0.0.0 Safari/537.36" version="21.6.2" etag="t9HG9MjBaOUmLjYu8mP3" type="github">
  <diagram name="Page-1" id="hMWtHYzG5-chgj7s8OUw">
    <mxGraphModel>
      <root>
        <mxCell id="0" />
        <mxCell id="1" parent="0" />
      </root>
    </mxGraphModel>
  </diagram>
</mxfile>
